<svg xmlns="http://www.w3.org/2000/svg" width="234.797" height="26.575" viewBox="0 0 234.797 26.575">
  <path id="パス_184" data-name="パス 184" d="M23.5,0V-11.467q0-3.606-3.23-3.606a3.4,3.4,0,0,0-1.846.564,3.289,3.289,0,0,0-1.248,1.3V0H12.9V-12.134a2.817,2.817,0,0,0-.837-2.145,3.291,3.291,0,0,0-2.358-.795,3.34,3.34,0,0,0-1.752.6A4.089,4.089,0,0,0,6.58-13.159V0H2.307V-18.3H5.247L6.118-16.7a5.937,5.937,0,0,1,4.6-1.948A7.137,7.137,0,0,1,16.2-16.663a5.508,5.508,0,0,1,2.239-1.444,8.127,8.127,0,0,1,2.871-.538,6.326,6.326,0,0,1,4.76,1.752,6.614,6.614,0,0,1,1.7,4.811V0Zm7.69-9.194a9.683,9.683,0,0,1,2.418-6.819,8.256,8.256,0,0,1,6.383-2.632,8.323,8.323,0,0,1,6.477,2.529,9.883,9.883,0,0,1,2.307,6.921,9.936,9.936,0,0,1-2.35,6.956A8.267,8.267,0,0,1,39.99.342,8.224,8.224,0,0,1,33.5-2.264,10.048,10.048,0,0,1,31.189-9.194Zm4.443,0q0,6.05,4.358,6.05a3.746,3.746,0,0,0,3.17-1.572,7.39,7.39,0,0,0,1.171-4.478q0-5.964-4.341-5.964a3.768,3.768,0,0,0-3.179,1.572A7.188,7.188,0,0,0,35.632-9.194Zm27.139-5.127a4.483,4.483,0,0,0-2.512-.752,3.409,3.409,0,0,0-2.64,1.35,4.9,4.9,0,0,0-1.154,3.3V0H52.192V-18.3h4.272v1.675a6.07,6.07,0,0,1,4.768-2.017,6.829,6.829,0,0,1,3.35.667ZM83.484-7.844H70.41a4.642,4.642,0,0,0,1.5,3.4A5.452,5.452,0,0,0,75.64-3.23a6.021,6.021,0,0,0,4.443-1.521l1.658,3.264Q79.485.342,75.007.342a8.913,8.913,0,0,1-6.622-2.452A9.29,9.29,0,0,1,65.95-8.955a9.493,9.493,0,0,1,2.675-7.007,8.738,8.738,0,0,1,6.417-2.683,8.709,8.709,0,0,1,6.392,2.375,8.133,8.133,0,0,1,2.41,6.05A11.936,11.936,0,0,1,83.484-7.844Zm-12.92-3.213h8.989q-.444-4.016-4.443-4.016Q71.453-15.073,70.564-11.057ZM93.071,0H87.517V-25.02q5.315-.188,6.682-.188a11.72,11.72,0,0,1,8.673,3.2,11.492,11.492,0,0,1,3.2,8.5Q106.077,0,93.071,0ZM91.96-21.14V-4.05q1.077.1,2.324.1a6.313,6.313,0,0,0,5.272-2.444,10.877,10.877,0,0,0,1.906-6.836q0-8.032-7.468-8.032Q93.276-21.26,91.96-21.14Zm34.128,13.3H113.015a4.642,4.642,0,0,0,1.5,3.4,5.452,5.452,0,0,0,3.726,1.213,6.021,6.021,0,0,0,4.443-1.521l1.658,3.264Q122.09.342,117.612.342a8.913,8.913,0,0,1-6.622-2.452,9.29,9.29,0,0,1-2.435-6.844,9.493,9.493,0,0,1,2.675-7.007,8.738,8.738,0,0,1,6.417-2.683,8.709,8.709,0,0,1,6.392,2.375,8.133,8.133,0,0,1,2.41,6.05A11.936,11.936,0,0,1,126.089-7.844Zm-12.92-3.213h8.989q-.444-4.016-4.443-4.016Q114.058-15.073,113.169-11.057ZM137.454.342h-1.538L127.644-18.3h4.683L136.7-7.126,141.4-18.3h4.529ZM176.282-23.7l-1.829,3.674q-1.487-1.487-4.785-1.487a6.175,6.175,0,0,0-5.127,2.623,10.639,10.639,0,0,0-2,6.639A10.042,10.042,0,0,0,164.4-5.879a5.975,5.975,0,0,0,4.948,2.358A6.666,6.666,0,0,0,174.88-6.05l2.068,3.589Q174.231.427,168.984.427a10.07,10.07,0,0,1-8.152-3.452q-2.905-3.452-2.905-9.417a13.717,13.717,0,0,1,3.221-9.288,10.4,10.4,0,0,1,8.246-3.734A12.027,12.027,0,0,1,176.282-23.7Zm2.8,14.509a9.683,9.683,0,0,1,2.418-6.819,8.256,8.256,0,0,1,6.383-2.632,8.323,8.323,0,0,1,6.477,2.529,9.883,9.883,0,0,1,2.307,6.921,9.936,9.936,0,0,1-2.35,6.956A8.267,8.267,0,0,1,187.886.342,8.224,8.224,0,0,1,181.4-2.264,10.048,10.048,0,0,1,179.084-9.194Zm4.443,0q0,6.05,4.358,6.05a3.746,3.746,0,0,0,3.17-1.572,7.39,7.39,0,0,0,1.171-4.478q0-5.964-4.341-5.964a3.768,3.768,0,0,0-3.179,1.572A7.188,7.188,0,0,0,183.528-9.194ZM211.863,0V-1.111a4.334,4.334,0,0,1-1.794,1.017,7.97,7.97,0,0,1-2.615.436,7.715,7.715,0,0,1-6.024-2.427,9.724,9.724,0,0,1-2.2-6.768,10,10,0,0,1,2.521-7.067,8.241,8.241,0,0,1,6.315-2.726,8.364,8.364,0,0,1,3.794.854v-7.332l4.272-1.025V0Zm0-13.928a4.514,4.514,0,0,0-2.854-1.094,4.994,4.994,0,0,0-3.948,1.564,6.557,6.557,0,0,0-1.384,4.486q0,5.708,5.5,5.708a4.151,4.151,0,0,0,1.512-.367,2.761,2.761,0,0,0,1.171-.743Zm24.883,6.084H223.672a4.642,4.642,0,0,0,1.5,3.4A5.452,5.452,0,0,0,228.9-3.23a6.021,6.021,0,0,0,4.443-1.521L235-1.487Q232.747.342,228.269.342a8.913,8.913,0,0,1-6.622-2.452,9.29,9.29,0,0,1-2.435-6.844,9.493,9.493,0,0,1,2.675-7.007,8.738,8.738,0,0,1,6.417-2.683,8.709,8.709,0,0,1,6.392,2.375,8.133,8.133,0,0,1,2.41,6.05A11.936,11.936,0,0,1,236.746-7.844Zm-12.92-3.213h8.989q-.444-4.016-4.443-4.016Q224.714-15.073,223.826-11.057Z" transform="translate(-2.307 26.147)" fill="#fff"/>
</svg>
