<svg xmlns="http://www.w3.org/2000/svg" xmlns:xlink="http://www.w3.org/1999/xlink" width="384" height="297" viewBox="0 0 384 297">
  <defs>
    <filter id="長方形_16" x="0" y="0" width="384" height="297" filterUnits="userSpaceOnUse">
      <feOffset dy="3" input="SourceAlpha"/>
      <feGaussianBlur stdDeviation="3" result="blur"/>
      <feFlood flood-opacity="0.161"/>
      <feComposite operator="in" in2="blur"/>
      <feComposite in="SourceGraphic"/>
    </filter>
  </defs>
  <g id="グループ_26" data-name="グループ 26" transform="translate(-1648 433)">
    <g transform="matrix(1, 0, 0, 1, 1648, -433)" filter="url(#長方形_16)">
      <rect id="長方形_16-2" data-name="長方形 16" width="366" height="279" rx="11" transform="translate(9 6)" fill="#fff"/>
    </g>
    <g id="undraw_static_website_re_x70h_1_" data-name="undraw_static_website_re_x70h (1)" transform="translate(1656.545 -427.353)">
      <path id="パス_152" data-name="パス 152" d="M855.789,469.5V586.966a12.031,12.031,0,0,1-12.016,12.016h-90.1l.837-1.059L854.73,470.845Z" transform="translate(-488.789 -319.364)" fill="#f2f2f2"/>
      <path id="パス_153" data-name="パス 153" d="M429.567,391.368H326.1a3.2,3.2,0,0,0,0,6.393H429.567a3.2,3.2,0,0,0,0-6.393Z" transform="translate(-286.15 -282.609)" fill="#e6e6e6"/>
      <path id="パス_154" data-name="パス 154" d="M358.183,357.524H326.1a3.2,3.2,0,0,0,0,6.393h32.079a3.2,3.2,0,0,0,0-6.393Z" transform="translate(-286.15 -266.688)" fill="#e6e6e6"/>
      <path id="パス_155" data-name="パス 155" d="M608.484,186H265.516A12.031,12.031,0,0,0,253.5,198.016V453.6a12.031,12.031,0,0,0,12.016,12.016H608.484A12.031,12.031,0,0,0,620.5,453.6V198.016A12.031,12.031,0,0,0,608.484,186Zm10.957,267.6a10.957,10.957,0,0,1-10.957,10.957H265.516A10.957,10.957,0,0,1,254.559,453.6V269.5A82.443,82.443,0,0,1,337,187.059H608.484a10.957,10.957,0,0,1,10.957,10.957Z" transform="translate(-253.5 -186)" fill="#e6e6e6"/>
      <path id="パス_156" data-name="パス 156" d="M616.32,272.328H316.19a.53.53,0,0,1,0-1.059H616.32a.53.53,0,1,1,0,1.059Z" transform="translate(-282.741 -226.112)" fill="#e6e6e6"/>
      <ellipse id="楕円形_4" data-name="楕円形 4" cx="4.478" cy="4.578" rx="4.478" ry="4.578" transform="translate(43.986 21.161)" fill="#e6e6e6"/>
      <ellipse id="楕円形_5" data-name="楕円形 5" cx="4.478" cy="4.578" rx="4.478" ry="4.578" transform="translate(59.457 21.161)" fill="#e6e6e6"/>
      <ellipse id="楕円形_6" data-name="楕円形 6" cx="4.478" cy="4.578" rx="4.478" ry="4.578" transform="translate(74.928 21.161)" fill="#e6e6e6"/>
      <path id="パス_157" data-name="パス 157" d="M433.6,235.007a.528.528,0,0,1-.379-.159l-3.022-3.089a.529.529,0,0,1,0-.741l3.022-3.089a.53.53,0,1,1,.757.741l-2.66,2.718,2.66,2.719a.53.53,0,0,1-.379.9Z" transform="translate(-336.551 -205.65)" fill="#e6e6e6"/>
      <path id="パス_158" data-name="パス 158" d="M445.872,235.007a.53.53,0,0,1-.379-.9l2.659-2.719-2.659-2.718a.53.53,0,1,1,.757-.741l3.022,3.089a.529.529,0,0,1,0,.741l-3.022,3.089A.528.528,0,0,1,445.872,235.007Z" transform="translate(-343.746 -205.65)" fill="#e6e6e6"/>
      <path id="パス_159" data-name="パス 159" d="M826.831,226.959h-5.619a1.159,1.159,0,0,0-1.16,1.16v5.624a1.159,1.159,0,0,0,1.16,1.16h5.619a1.164,1.164,0,0,0,1.165-1.16v-5.624A1.164,1.164,0,0,0,826.831,226.959Z" transform="translate(-520.017 -205.268)" fill="#e6e6e6"/>
      <path id="パス_160" data-name="パス 160" d="M800.831,226.959h-5.619a1.159,1.159,0,0,0-1.16,1.16v5.624a1.159,1.159,0,0,0,1.16,1.16h5.619a1.164,1.164,0,0,0,1.165-1.16v-5.624A1.164,1.164,0,0,0,800.831,226.959Z" transform="translate(-507.786 -205.268)" fill="#e6e6e6"/>
      <path id="パス_161" data-name="パス 161" d="M851.331,227.459h-5.619a1.159,1.159,0,0,0-1.16,1.16v5.624a1.159,1.159,0,0,0,1.16,1.16h5.619a1.164,1.164,0,0,0,1.165-1.16v-5.624A1.164,1.164,0,0,0,851.331,227.459Z" transform="translate(-531.542 -205.503)" fill="#e6e6e6"/>
      <path id="パス_162" data-name="パス 162" d="M601.278,231.5H556.364a1.414,1.414,0,0,0,0,2.828h44.914a1.414,1.414,0,1,0,0-2.828Z" transform="translate(-395.308 -207.403)" fill="#e6e6e6"/>
      <path id="パス_163" data-name="パス 163" d="M379.993,595.5l-26.859-.849c-3.725-.118-7.914-.112-10.571,1.813-3.016,2.185-2.559,6.056-.055,8.567s6.5,3.945,10.426,5.112c20.846,6.2,43.917,7.454,66.319,6.052s44.342-5.365,66.174-9.315c2.071-.375,4.417-.914,5.262-2.355.817-1.394-.252-3.075-1.912-3.976a17.038,17.038,0,0,0-5.8-1.473,544.254,544.254,0,0,0-110.948-3.165" transform="translate(-294.409 -378.137)" fill="#00bfa6"/>
      <path id="パス_164" data-name="パス 164" d="M483.456,551.784V545.43c-4.612.065-21.115-.047-25.42,0-.32,22.211-2.284,17.86,15.913,17.947a3.164,3.164,0,0,1,3.152,3.16v.1a3.159,3.159,0,0,1-3.159,3.159H458.036v6.355h25.42c.036-.021-.026-6.136,0-6.355,1.075-18.411-1.052-11.789-16.5-12.528a2.7,2.7,0,0,1-2.56-2.7v-.079a2.7,2.7,0,0,1,2.7-2.7Z" transform="translate(-349.615 -355.077)" fill="#3f3d56"/>
      <path id="パス_165" data-name="パス 165" d="M542.456,551.784V545.43c-4.612.065-21.115-.047-25.42,0-.323,22.4-2.318,17.783,16.392,17.95a2.7,2.7,0,0,1,2.673,2.7c0,.334,0,.675,0,1.01a2.7,2.7,0,0,1-2.7,2.7H517.036v6.355h25.42c.036-.021-.026-6.136,0-6.355,1.075-18.411-1.052-11.789-16.5-12.528a2.7,2.7,0,0,1-2.56-2.7v-.079a2.7,2.7,0,0,1,2.7-2.7Z" transform="translate(-377.37 -355.077)" fill="#3f3d56"/>
      <path id="パス_166" data-name="パス 166" d="M421.128,551.795V545.44h-25.42c-.018,5.668.013,20.671,0,26.479-4.983,8.436,23.324,2.6,25.421,4.239,0,0,0-6.357,0-6.357-19.341-.1-19.827,3.52-19.2-14a4.154,4.154,0,0,1,4.149-4.009Z" transform="translate(-320.121 -355.087)" fill="#3f3d56"/>
      <path id="パス_167" data-name="パス 167" d="M503.993,452.325l-26.859-.708c-3.725-.1-7.914-.093-10.571,1.512-3.016,1.821-2.559,5.048-.055,7.141s6.5,3.289,10.426,4.261c20.846,5.165,43.918,6.214,66.319,5.045s44.342-4.473,66.174-7.765c2.071-.312,4.417-.762,5.262-1.963.817-1.162-.252-2.563-1.912-3.314a19.825,19.825,0,0,0-5.8-1.228,652.144,652.144,0,0,0-110.948-2.638" transform="translate(-352.741 -310.867)" fill="#00bfa6"/>
      <path id="パス_168" data-name="パス 168" d="M515.884,399.833c-.433,9.811,3.173,12.9-9.268,11.65-.841-5.853,3.422-13.975-6.354-11.913,1.958,4.246-5.456,36.459,6.353,30.713.663-9.678-3.708-13.923,9.27-12.442,1.041,5.983-3.817,14.787,6.354,12.708C520.28,426.3,527.695,394.09,515.884,399.833Z" transform="translate(-369.333 -286.269)" fill="#3f3d56"/>
      <path id="パス_169" data-name="パス 169" d="M633,399.821c.872.539-7.992,9.916-8.183,10.684-.266-.656-8.726-9.83-7.7-10.684-11.772-5.817-4.435,26.582-6.357,30.717,0,0,6.357,0,6.357,0V410.414c8.933,12.048,7.274,10.02,15.888-.591v20.715c11.772,5.819,4.436-26.584,6.357-30.717C639.36,399.821,633,399.821,633,399.821Z" transform="translate(-421.315 -286.258)" fill="#3f3d56"/>
      <path id="パス_170" data-name="パス 170" d="M577.411,400.44h-25.42c-1.494,8.909,3.445,5.921,9.533,6.355v24.361h6.355V406.795C573.938,406.383,578.923,409.309,577.411,400.44Z" transform="translate(-393.789 -286.877)" fill="#3f3d56"/>
      <path id="パス_171" data-name="パス 171" d="M681.578,424.8a67.936,67.936,0,0,1,0-24.361h-6.355c.037,4.026-.011,20.273-.008,27.7a3.024,3.024,0,0,0,3.022,3.025c6.4.008,18.625-.039,22.406-.013V424.8Z" transform="translate(-451.883 -286.877)" fill="#3f3d56"/>
      <path id="パス_172" data-name="パス 172" d="M353.5,448.44h-25.83a4.766,4.766,0,0,0,0,9.532H353.5a4.766,4.766,0,0,0,0-9.532Z" transform="translate(-286.15 -309.457)" fill="#e6e6e6"/>
      <path id="パス_173" data-name="パス 173" d="M562.519,499.6h-5.243l-2.494-20.225h7.739Z" transform="translate(-260.979 -225.508)" fill="#ffb6b6"/>
      <path id="パス_174" data-name="パス 174" d="M808.918,706.155H792.794v-.2a6.276,6.276,0,0,1,6.276-6.276h0l2.945-2.234,5.5,2.235h1.408Z" transform="translate(-507.194 -426.591)" fill="#2f2e41"/>
      <path id="パス_175" data-name="パス 175" d="M597.519,499.6h-5.243l-2.494-20.225h7.739Z" transform="translate(-277.444 -225.508)" fill="#ffb6b6"/>
      <path id="パス_176" data-name="パス 176" d="M843.918,706.155H827.794v-.2a6.276,6.276,0,0,1,6.276-6.276h0l2.945-2.234,5.5,2.235h1.408Z" transform="translate(-523.658 -426.591)" fill="#2f2e41"/>
      <path id="パス_177" data-name="パス 177" d="M793.527,495.48s-5.045,15.495-4.114,17.534,2.52.451.931,2.039-2.976-.1-1.488,2.6,3.742,24.908,4.733,25.984,2.354,1.1,1.143,2.149-2.8-1.074-1.211,1.045,5.8,50.986,5.8,50.986h8.236s2.051-2.364.89-3.9.1-2.132,0-3.159a34.846,34.846,0,0,1,.356-4.253c.072-1.011,1.464-25.09-1.88-39l6.1-26.485,3.049,32.011s-3.4,26.851,0,35.483c0,0-2.739,2.281-1.524,3.6s2.274.263,1.215,1.322,1.589,4.766,1.589,4.766l9-.53,5.1-50.17s.859-5.232,0-6.129-.859,2.281-.859-.9v-4.237s3.84-26.058,3.773-27.592-6.421-12.656-6.421-12.656Z" transform="translate(-505.043 -331.585)" fill="#2f2e41"/>
      <path id="パス_178" data-name="パス 178" d="M824.933,376.344l-13.146-.9-3.934,6.2-9.474,3.852v30.554a29.447,29.447,0,0,1,1.509,9.173c-.036,6.087-1.6,13.258-1.059,14.828,5.3,15.358,34.423,0,34.423,0l-.53-16.417.719-37.1-5.952-4.747Z" transform="translate(-509.822 -275.116)" fill="#e6e6e6"/>
      <path id="パス_179" data-name="パス 179" d="M791.461,499.2l-.906-9.66-5.591-.252,1.322,10.179a3.248,3.248,0,1,0,5.175-.267Z" transform="translate(-503.511 -328.672)" fill="#ffb6b6"/>
      <path id="パス_180" data-name="パス 180" d="M791.485,392.886l-.155.026a9,9,0,0,0-6.665,5.1c-1.6,3.462-6.8,26.223-4.521,29.656,1.767,2.662,1.338,2.143.507,4.151s-2.169-.135-1.072,3.052,2.3,2.732,1.284,3.964-2.062.99-1.072,3.052a9.967,9.967,0,0,1,1.016,3.535c.187.777.024,6.239.024,6.239s5.972-.453,8.944.967c0,0-1.658-5.517-.721-6.4s2.062-.99,1.259-2.276-2.624-1.34-.642-1.982,1.344-12.157,1.344-12.157C794.28,421.266,792.99,407.207,791.485,392.886Z" transform="translate(-500.783 -283.323)" fill="#e6e6e6"/>
      <path id="パス_181" data-name="パス 181" d="M869.837,500.221l.418-9.694,5.571-.534-.806,10.233a3.248,3.248,0,1,1-5.182-.005Z" transform="translate(-543.126 -329.004)" fill="#ffb6b6"/>
      <path id="パス_182" data-name="パス 182" d="M859.426,394.6l.156.018a9,9,0,0,1,6.913,4.756c1.774,3.377,7.385,26.251,6.011,29.39-1.281,2.927-1.228,2.208-.3,4.171s2.159-.244,1.225,2.994-2.161,2.845-1.082,4.023,2.11.885,1.225,2.994a9.968,9.968,0,0,0-.837,3.582c-.148.785.29,6.233.29,6.233s-5.987-.151-8.883,1.417c0,0,1.378-5.594.4-6.428s-2.11-.885-1.373-2.209,2.553-1.471.541-2.012-1.955-12.074-1.955-12.074Z" transform="translate(-538.539 -284.128)" fill="#e6e6e6"/>
      <circle id="楕円形_7" data-name="楕円形 7" cx="10.254" cy="10.254" r="10.254" transform="translate(298.607 77.874)" fill="#ffb6b6"/>
      <path id="パス_183" data-name="パス 183" d="M831.888,347.905c1.426-1.116,1.565-3.243,2.781-4.584,2.035-2.242,2.991-4.654,1.925-7.311-.943-2.35-.742-5.238-2.773-6.751,1-.361,1.232-1.111.352-1.124-.593-.009-2.805,1.125-1.741-.288s-.95-.855-.817-1.433.988-.9,1.365-.44a2.987,2.987,0,0,0-4.685.536c-1.2-1.8-2.472-3.034-4.307-1.894-1.8,1.12-1.779,2.505-3.717,2.172-.911-.156-1,1.565-1.62,2.249a2.779,2.779,0,0,1-2.441,1.041A1.483,1.483,0,0,1,815.117,328l-2.141,4.885-.863-1.058c-1.371.894-.921,3.225.459,4.1s3.174.692,4.763.3a18.681,18.681,0,0,1,5.853-.485,5.27,5.27,0,0,1,3.98,6.831c1.153-1.132,3.286-.193,3.883,1.309s.159,3.193-.283,4.747" transform="translate(-515.891 -251.001)" fill="#2f2e41"/>
    </g>
  </g>
</svg>
